<svg width="78" height="78" viewBox="0 0 78 78" fill="none" xmlns="http://www.w3.org/2000/svg">
<g clip-path="url(#clip0_6_4)">
<path fill-rule="evenodd" clip-rule="evenodd" d="M52.1151 0.81402C51.7255 0.423424 51.2287 0.157308 50.6877 0.0494068C50.1467 -0.0584938 49.5858 -0.00331939 49.0761 0.207935C48.5665 0.41919 48.1311 0.777012 47.825 1.23604C47.519 1.69506 47.3562 2.23462 47.3571 2.78631V11.1434H13.9286C10.2345 11.1434 6.6917 12.6109 4.07958 15.223C1.46747 17.8351 0 21.3779 0 25.072L0 33.4292C0 34.9068 0.586988 36.3239 1.63183 37.3688C2.67668 38.4136 4.09379 39.0006 5.57143 39.0006C7.04906 39.0006 8.46618 38.4136 9.51102 37.3688C10.5559 36.3239 11.1429 34.9068 11.1429 33.4292V25.072C11.1429 24.3332 11.4364 23.6247 11.9588 23.1022C12.4812 22.5798 13.1898 22.2863 13.9286 22.2863H47.3571V30.6435C47.3562 31.1951 47.519 31.7347 47.825 32.1937C48.1311 32.6527 48.5665 33.0106 49.0761 33.2218C49.5858 33.4331 50.1467 33.4883 50.6877 33.3804C51.2287 33.2725 51.7255 33.0063 52.1151 32.6157L66.0437 18.6872C66.3031 18.4284 66.509 18.121 66.6494 17.7826C66.7898 17.4441 66.8621 17.0813 66.8621 16.7149C66.8621 16.3485 66.7898 15.9856 66.6494 15.6472C66.509 15.3088 66.3031 15.0014 66.0437 14.7426L52.1151 0.81402ZM28.9157 44.7837C29.4262 44.9935 29.8629 45.3501 30.1704 45.8083C30.4779 46.2666 30.6423 46.8059 30.6429 47.3577V55.7149H64.0714C64.8102 55.7149 65.5188 55.4214 66.0412 54.899C66.5637 54.3765 66.8571 53.668 66.8571 52.9292V44.572C66.8571 43.0944 67.4441 41.6773 68.489 40.6324C69.5338 39.5876 70.9509 39.0006 72.4286 39.0006C73.9062 39.0006 75.3233 39.5876 76.3682 40.6324C77.413 41.6773 78 43.0944 78 44.572V52.9292C78 54.7583 77.6397 56.5695 76.9398 58.2594C76.2398 59.9493 75.2138 61.4848 73.9204 62.7782C72.627 64.0715 71.0916 65.0975 69.4017 65.7975C67.7118 66.4975 65.9006 66.8577 64.0714 66.8577H30.6429V75.2149C30.6438 75.7666 30.481 76.3061 30.175 76.7652C29.8689 77.2242 29.4335 77.582 28.9239 77.7933C28.4142 78.0045 27.8533 78.0597 27.3123 77.9518C26.7713 77.8439 26.2745 77.5778 25.8849 77.1872L11.9563 63.2586C11.6969 62.9998 11.491 62.6924 11.3506 62.354C11.2102 62.0155 11.1379 61.6527 11.1379 61.2863C11.1379 60.9199 11.2102 60.5571 11.3506 60.2186C11.491 59.8802 11.6969 59.5728 11.9563 59.314L25.8849 45.3855C26.2747 44.9961 26.7713 44.7311 27.3118 44.624C27.8523 44.5169 28.4068 44.5725 28.9157 44.7837Z" fill="#414141"/>
</g>
<defs>
<clipPath id="clip0_6_4">
<rect width="78" height="78" fill="white"/>
</clipPath>
</defs>
</svg>
